<?xml version="1.0" encoding="UTF-8" standalone="no"?>
<!DOCTYPE svg PUBLIC "-//W3C//DTD SVG 1.1//EN"
 "http://www.w3.org/Graphics/SVG/1.1/DTD/svg11.dtd">
<!-- Generated by graphviz version 2.47.3 (20210619.1520)
 -->
<!-- Title: dependencies Pages: 1 -->
<svg width="418pt" height="174pt"
 viewBox="0.00 0.00 418.00 173.80" xmlns="http://www.w3.org/2000/svg" xmlns:xlink="http://www.w3.org/1999/xlink">
<g id="graph0" class="graph" transform="scale(1 1) rotate(0) translate(4 169.8)">
<title>dependencies</title>
<polygon fill="white" stroke="transparent" points="-4,4 -4,-169.8 414,-169.8 414,4 -4,4"/>
<text text-anchor="middle" x="205" y="-8.2" font-family="sans-serif" font-size="14.00">dependencies</text>
<g id="clust1" class="cluster">
<title>cluster_AppModule</title>
<polygon fill="none" stroke="black" stroke-dasharray="1,5" points="8,-32.8 8,-157.8 402,-157.8 402,-32.8 8,-32.8"/>
</g>
<g id="clust3" class="cluster">
<title>cluster_AppModule_imports</title>
<polygon fill="none" stroke="black" points="154,-40.8 154,-92.8 394,-92.8 394,-40.8 154,-40.8"/>
</g>
<g id="clust6" class="cluster">
<title>cluster_AppModule_providers</title>
<polygon fill="none" stroke="black" points="16,-40.8 16,-92.8 146,-92.8 146,-40.8 16,-40.8"/>
</g>
<!-- BikeModule -->
<g id="node1" class="node">
<title>BikeModule</title>
<polygon fill="#8dd3c7" stroke="black" points="385.99,-84.8 382.99,-88.8 361.99,-88.8 358.99,-84.8 300.01,-84.8 300.01,-48.8 385.99,-48.8 385.99,-84.8"/>
<text text-anchor="middle" x="343" y="-62.6" font-family="Times,serif" font-size="14.00">BikeModule</text>
</g>
<!-- AppModule -->
<g id="node3" class="node">
<title>AppModule</title>
<polygon fill="#8dd3c7" stroke="black" points="263.66,-149.8 260.66,-153.8 239.66,-153.8 236.66,-149.8 180.34,-149.8 180.34,-113.8 263.66,-113.8 263.66,-149.8"/>
<text text-anchor="middle" x="222" y="-127.6" font-family="Times,serif" font-size="14.00">AppModule</text>
</g>
<!-- BikeModule&#45;&gt;AppModule -->
<g id="edge1" class="edge">
<title>BikeModule&#45;&gt;AppModule</title>
<path fill="none" stroke="black" d="M343,-84.91C343,-104.14 343,-131.8 343,-131.8 343,-131.8 273.98,-131.8 273.98,-131.8"/>
<polygon fill="black" stroke="black" points="273.98,-128.3 263.98,-131.8 273.98,-135.3 273.98,-128.3"/>
</g>
<!-- EnvConfigModule -->
<g id="node2" class="node">
<title>EnvConfigModule</title>
<polygon fill="#8dd3c7" stroke="black" points="282.49,-84.8 279.49,-88.8 258.49,-88.8 255.49,-84.8 161.51,-84.8 161.51,-48.8 282.49,-48.8 282.49,-84.8"/>
<text text-anchor="middle" x="222" y="-62.6" font-family="Times,serif" font-size="14.00">EnvConfigModule</text>
</g>
<!-- EnvConfigModule&#45;&gt;AppModule -->
<g id="edge2" class="edge">
<title>EnvConfigModule&#45;&gt;AppModule</title>
<path fill="none" stroke="black" d="M222,-84.91C222,-84.91 222,-103.79 222,-103.79"/>
<polygon fill="black" stroke="black" points="218.5,-103.79 222,-113.79 225.5,-103.79 218.5,-103.79"/>
</g>
<!-- AppService -->
<g id="node4" class="node">
<title>AppService</title>
<ellipse fill="#fdb462" stroke="black" cx="81" cy="-66.8" rx="56.74" ry="18"/>
<text text-anchor="middle" x="81" y="-62.6" font-family="Times,serif" font-size="14.00">AppService</text>
</g>
<!-- AppService&#45;&gt;AppModule -->
<g id="edge3" class="edge">
<title>AppService&#45;&gt;AppModule</title>
<path fill="none" stroke="black" d="M81,-84.91C81,-104.14 81,-131.8 81,-131.8 81,-131.8 170.08,-131.8 170.08,-131.8"/>
<polygon fill="black" stroke="black" points="170.08,-135.3 180.08,-131.8 170.08,-128.3 170.08,-135.3"/>
</g>
</g>
</svg>
