<?xml version="1.0" encoding="UTF-8" standalone="no"?>
<!DOCTYPE svg PUBLIC "-//W3C//DTD SVG 1.1//EN"
 "http://www.w3.org/Graphics/SVG/1.1/DTD/svg11.dtd">
<!-- Generated by graphviz version 2.47.3 (20210619.1520)
 -->
<!-- Title: dependencies Pages: 1 -->
<svg width="768pt" height="261pt"
 viewBox="0.00 0.00 768.00 260.80" xmlns="http://www.w3.org/2000/svg" xmlns:xlink="http://www.w3.org/1999/xlink">
<g id="graph0" class="graph" transform="scale(1 1) rotate(0) translate(4 256.8)">
<title>dependencies</title>
<polygon fill="white" stroke="transparent" points="-4,4 -4,-256.8 764,-256.8 764,4 -4,4"/>
<text text-anchor="middle" x="380" y="-8.2" font-family="sans-serif" font-size="14.00">dependencies</text>
<g id="clust1" class="cluster">
<title>cluster_AppModule</title>
<polygon fill="none" stroke="black" stroke-dasharray="1,5" points="8,-108.8 8,-236.8 402,-236.8 402,-108.8 8,-108.8"/>
</g>
<g id="clust3" class="cluster">
<title>cluster_AppModule_imports</title>
<polygon fill="none" stroke="black" points="154,-116.8 154,-168.8 394,-168.8 394,-116.8 154,-116.8"/>
</g>
<g id="clust6" class="cluster">
<title>cluster_AppModule_providers</title>
<polygon fill="none" stroke="black" points="16,-116.8 16,-168.8 146,-168.8 146,-116.8 16,-116.8"/>
</g>
<g id="clust7" class="cluster">
<title>cluster_BikeModule</title>
<polygon fill="none" stroke="black" stroke-dasharray="1,5" points="131,-32.8 131,-100.8 279,-100.8 279,-32.8 131,-32.8"/>
</g>
<g id="clust12" class="cluster">
<title>cluster_BikeModule_providers</title>
<polygon fill="none" stroke="black" points="139,-40.8 139,-92.8 271,-92.8 271,-40.8 139,-40.8"/>
</g>
<g id="clust13" class="cluster">
<title>cluster_EnvConfigModule</title>
<polygon fill="none" stroke="black" stroke-dasharray="1,5" points="410,-176.8 410,-244.8 752,-244.8 752,-176.8 410,-176.8"/>
</g>
<g id="clust16" class="cluster">
<title>cluster_EnvConfigModule_exports</title>
<polygon fill="none" stroke="black" points="606,-184.8 606,-236.8 744,-236.8 744,-184.8 606,-184.8"/>
</g>
<g id="clust18" class="cluster">
<title>cluster_EnvConfigModule_providers</title>
<polygon fill="none" stroke="black" points="418,-184.8 418,-236.8 598,-236.8 598,-184.8 418,-184.8"/>
</g>
<!-- BikeModule -->
<g id="node1" class="node">
<title>BikeModule</title>
<polygon fill="#8dd3c7" stroke="black" points="247.99,-160.8 244.99,-164.8 223.99,-164.8 220.99,-160.8 162.01,-160.8 162.01,-124.8 247.99,-124.8 247.99,-160.8"/>
<text text-anchor="middle" x="205" y="-138.6" font-family="Times,serif" font-size="14.00">BikeModule</text>
</g>
<!-- AppModule -->
<g id="node3" class="node">
<title>AppModule</title>
<polygon fill="#8dd3c7" stroke="black" points="246.66,-228.8 243.66,-232.8 222.66,-232.8 219.66,-228.8 163.34,-228.8 163.34,-192.8 246.66,-192.8 246.66,-228.8"/>
<text text-anchor="middle" x="205" y="-206.6" font-family="Times,serif" font-size="14.00">AppModule</text>
</g>
<!-- BikeModule&#45;&gt;AppModule -->
<g id="edge1" class="edge">
<title>BikeModule&#45;&gt;AppModule</title>
<path fill="none" stroke="black" d="M205,-161.02C205,-161.02 205,-182.53 205,-182.53"/>
<polygon fill="black" stroke="black" points="201.5,-182.53 205,-192.53 208.5,-182.53 201.5,-182.53"/>
</g>
<!-- EnvConfigModule -->
<g id="node2" class="node">
<title>EnvConfigModule</title>
<polygon fill="#8dd3c7" stroke="black" points="386.49,-160.8 383.49,-164.8 362.49,-164.8 359.49,-160.8 265.51,-160.8 265.51,-124.8 386.49,-124.8 386.49,-160.8"/>
<text text-anchor="middle" x="326" y="-138.6" font-family="Times,serif" font-size="14.00">EnvConfigModule</text>
</g>
<!-- EnvConfigModule&#45;&gt;AppModule -->
<g id="edge2" class="edge">
<title>EnvConfigModule&#45;&gt;AppModule</title>
<path fill="none" stroke="black" d="M305.83,-161.09C305.83,-183.01 305.83,-216.8 305.83,-216.8 305.83,-216.8 256.89,-216.8 256.89,-216.8"/>
<polygon fill="black" stroke="black" points="256.89,-213.3 246.89,-216.8 256.89,-220.3 256.89,-213.3"/>
</g>
<!-- EnvConfigService  -->
<g id="node6" class="node">
<title>EnvConfigService </title>
<polygon fill="#fb8072" stroke="black" points="736.42,-228.8 613.58,-228.8 613.58,-192.8 736.42,-192.8 736.42,-228.8"/>
<text text-anchor="middle" x="675" y="-206.6" font-family="Times,serif" font-size="14.00">EnvConfigService </text>
</g>
<!-- EnvConfigModule&#45;&gt;EnvConfigService  -->
<g id="edge5" class="edge">
<title>EnvConfigModule&#45;&gt;EnvConfigService </title>
<path fill="none" stroke="black" stroke-dasharray="5,2" d="M386.79,-142.8C486.78,-142.8 675,-142.8 675,-142.8 675,-142.8 675,-182.58 675,-182.58"/>
<polygon fill="black" stroke="black" points="671.5,-182.58 675,-192.58 678.5,-182.58 671.5,-182.58"/>
</g>
<!-- AppService -->
<g id="node4" class="node">
<title>AppService</title>
<ellipse fill="#fdb462" stroke="black" cx="81" cy="-142.8" rx="56.74" ry="18"/>
<text text-anchor="middle" x="81" y="-138.6" font-family="Times,serif" font-size="14.00">AppService</text>
</g>
<!-- AppService&#45;&gt;AppModule -->
<g id="edge3" class="edge">
<title>AppService&#45;&gt;AppModule</title>
<path fill="none" stroke="black" d="M81,-161.02C81,-181.17 81,-210.8 81,-210.8 81,-210.8 153.02,-210.8 153.02,-210.8"/>
<polygon fill="black" stroke="black" points="153.02,-214.3 163.02,-210.8 153.02,-207.3 153.02,-214.3"/>
</g>
<!-- BikeService -->
<g id="node5" class="node">
<title>BikeService</title>
<ellipse fill="#fdb462" stroke="black" cx="205" cy="-66.8" rx="58.46" ry="18"/>
<text text-anchor="middle" x="205" y="-62.6" font-family="Times,serif" font-size="14.00">BikeService</text>
</g>
<!-- BikeService&#45;&gt;BikeModule -->
<g id="edge4" class="edge">
<title>BikeService&#45;&gt;BikeModule</title>
<path fill="none" stroke="black" d="M205,-84.81C205,-84.81 205,-114.65 205,-114.65"/>
<polygon fill="black" stroke="black" points="201.5,-114.65 205,-124.65 208.5,-114.65 201.5,-114.65"/>
</g>
<!-- EnvConfigService -->
<g id="node7" class="node">
<title>EnvConfigService</title>
<ellipse fill="#fdb462" stroke="black" cx="508" cy="-210.8" rx="82.24" ry="18"/>
<text text-anchor="middle" x="508" y="-206.6" font-family="Times,serif" font-size="14.00">EnvConfigService</text>
</g>
<!-- EnvConfigService&#45;&gt;EnvConfigModule -->
<g id="edge6" class="edge">
<title>EnvConfigService&#45;&gt;EnvConfigModule</title>
<path fill="none" stroke="black" d="M429.93,-204.8C388.54,-204.8 346.17,-204.8 346.17,-204.8 346.17,-204.8 346.17,-171.07 346.17,-171.07"/>
<polygon fill="black" stroke="black" points="349.67,-171.07 346.17,-161.07 342.67,-171.07 349.67,-171.07"/>
</g>
</g>
</svg>
